<?xml version="1.0" encoding="UTF-8" standalone="no"?>
<!-- Created with Inkscape (http://www.inkscape.org/) -->

<svg
   xmlns:osb="http://www.openswatchbook.org/uri/2009/osb"
   xmlns:dc="http://purl.org/dc/elements/1.1/"
   xmlns:cc="http://creativecommons.org/ns#"
   xmlns:rdf="http://www.w3.org/1999/02/22-rdf-syntax-ns#"
   xmlns:svg="http://www.w3.org/2000/svg"
   xmlns="http://www.w3.org/2000/svg"
   xmlns:sodipodi="http://sodipodi.sourceforge.net/DTD/sodipodi-0.dtd"
   xmlns:inkscape="http://www.inkscape.org/namespaces/inkscape"
   width="450"
   height="350.35999"
   id="svg2"
   version="1.1"
   inkscape:version="0.48.4 r9939"
   sodipodi:docname="kraken.svg"
   inkscape:export-filename="C:\wamp\www\p\kraken\img\kraken.png"
   inkscape:export-xdpi="90"
   inkscape:export-ydpi="90">
  <defs
     id="defs4">
    <marker
       inkscape:stockid="Arrow1Lend"
       orient="auto"
       refY="0"
       refX="0"
       id="Arrow1Lend"
       style="overflow:visible">
      <path
         id="path5401"
         d="M 0,0 5,-5 -12.5,0 5,5 0,0 z"
         style="fill-rule:evenodd;stroke:#000000;stroke-width:1pt"
         transform="matrix(-0.8,0,0,-0.8,-10,0)"
         inkscape:connector-curvature="0" />
    </marker>
    <linearGradient
       id="linearGradient5294"
       osb:paint="solid">
      <stop
         style="stop-color:#000000;stop-opacity:1;"
         offset="0"
         id="stop5296" />
    </linearGradient>
    <inkscape:perspective
       sodipodi:type="inkscape:persp3d"
       inkscape:vp_x="306.07622 : 739.32328 : 1"
       inkscape:vp_y="0 : 1000 : 0"
       inkscape:vp_z="749.14524 : 366.57699 : 1"
       inkscape:persp3d-origin="377.098 : 191.18329 : 1"
       id="perspective3811" />
  </defs>
  <sodipodi:namedview
     id="base"
     pagecolor="#ffffff"
     bordercolor="#666666"
     borderopacity="1.0"
     inkscape:pageopacity="0.0"
     inkscape:pageshadow="2"
     inkscape:zoom="0.92859815"
     inkscape:cx="28.16893"
     inkscape:cy="218.66751"
     inkscape:document-units="px"
     inkscape:current-layer="layer1"
     showgrid="false"
     inkscape:snap-bbox="false"
     inkscape:snap-bbox-edge-midpoints="false"
     inkscape:snap-center="false"
     inkscape:snap-object-midpoints="false"
     inkscape:snap-midpoints="false"
     inkscape:snap-nodes="true"
     inkscape:window-width="1280"
     inkscape:window-height="908"
     inkscape:window-x="-8"
     inkscape:window-y="-8"
     inkscape:window-maximized="1"
     showborder="true"
     inkscape:showpageshadow="true" />
  <metadata
     id="metadata7">
    <rdf:RDF>
      <cc:Work
         rdf:about="">
        <dc:format>image/svg+xml</dc:format>
        <dc:type
           rdf:resource="http://purl.org/dc/dcmitype/StillImage" />
        <dc:title></dc:title>
      </cc:Work>
    </rdf:RDF>
  </metadata>
  <g
     inkscape:label="Capa 1"
     inkscape:groupmode="layer"
     id="layer1"
     transform="translate(0,-702.00217)">
    <g
       id="g5848"
       transform="matrix(1.1345098,0.46145818,-0.15837479,0.99231689,-281.81165,453.9025)"
       style="fill:#000000;fill-opacity:1;stroke:#666666;stroke-width:1.82659709;stroke-miterlimit:4;stroke-opacity:1;stroke-dasharray:none"
       clip-path="none">
      <rect
         ry="36.321892"
         rx="8.3373203"
         y="402.89731"
         x="-387.73523"
         height="131.9865"
         width="146.40018"
         id="rect5372"
         style="fill:#000000;fill-opacity:1;stroke:#666666;stroke-width:1.87565207;stroke-linecap:round;stroke-linejoin:miter;stroke-miterlimit:4;stroke-opacity:1;stroke-dasharray:none;stroke-dashoffset:0"
         transform="matrix(-0.63164357,0.77525892,0.53491465,0.8449061,0,0)" />
    </g>
    <path
       sodipodi:type="arc"
       style="fill:#000000;fill-opacity:1;stroke:none"
       id="path5356"
       sodipodi:cx="280.31732"
       sodipodi:cy="387.68179"
       sodipodi:rx="106.57109"
       sodipodi:ry="101.01525"
       d="m 386.88841,387.68179 a 106.57109,101.01525 0 1 1 -213.14218,0 106.57109,101.01525 0 1 1 213.14218,0 z"
       transform="matrix(0.64515428,0.12749663,-0.22578108,0.86323596,92.274929,490.55293)"
       clip-path="none" />
    <path
       style="fill:#000000;fill-opacity:1;stroke:none"
       d="m 112.4798,1036.9061 c -5.32417,4.7156 0.88016,-27.2802 23.53237,-42.66884 14.0237,-9.5269 29.78668,-13.90199 47.41929,-33.81669 2.78292,-3.14309 11.31769,-13.2187 17.3348,-22.39281 5.1104,-7.7916 -32.3061,-30.1682 16.02082,-34.51494 10.56929,3.98853 20.86403,8.61336 11.69654,22.75886 -15.53822,23.97565 -29.71791,43.31168 -52.90325,59.7263 -2.65671,1.88088 -14.27739,9.19229 -23.74765,16.35752 -10.91541,8.2586 1.73411,-2.44486 -19.40442,12.7139 l -4.03078,7.2554 10.91325,3.9112 -17.27702,9.5083"
       id="path6076-8"
       inkscape:connector-curvature="0"
       sodipodi:nodetypes="cssscssscccc"
       clip-path="none" />
    <path
       sodipodi:type="arc"
       style="fill:#e3dbdb;fill-opacity:1;stroke:none"
       id="path5972-6-0"
       sodipodi:cx="247.26562"
       sodipodi:cy="372.28406"
       sodipodi:rx="93.059357"
       sodipodi:ry="28.286348"
       d="m 340.32498,372.28406 a 93.059357,28.286348 0 1 1 -186.11871,0 93.059357,28.286348 0 1 1 186.11871,0 z"
       transform="matrix(0.42171028,0.30899254,-0.51663701,0.7041699,258.22404,468.11279)"
       clip-path="none" />
    <path
       sodipodi:type="arc"
       style="fill:#ffffff;fill-opacity:1;stroke:#666666;stroke-width:0.48899999;stroke-linecap:round;stroke-linejoin:miter;stroke-miterlimit:4;stroke-opacity:1;stroke-dasharray:none;stroke-dashoffset:0"
       id="path5996"
       sodipodi:cx="422.26562"
       sodipodi:cy="291.42468"
       sodipodi:rx="19.140625"
       sodipodi:ry="20.3125"
       d="m 441.40625,291.42468 a 19.140625,20.3125 0 1 1 -3.8e-4,-0.12861"
       sodipodi:start="0"
       sodipodi:end="6.2768537"
       sodipodi:open="true"
       transform="translate(-249.13966,517.58632)"
       clip-path="none" />
    <path
       sodipodi:type="arc"
       style="fill:#000000;fill-opacity:1;stroke:#666666;stroke-width:0.48899999;stroke-linecap:round;stroke-linejoin:miter;stroke-miterlimit:4;stroke-opacity:1;stroke-dasharray:none;stroke-dashoffset:0"
       id="path5976"
       sodipodi:cx="128.125"
       sodipodi:cy="291.81531"
       sodipodi:rx="20.3125"
       sodipodi:ry="34.765625"
       d="m 148.4375,291.81531 a 20.3125,34.765625 0 1 1 -4.1e-4,-0.22012"
       sodipodi:start="0"
       sodipodi:end="6.2768537"
       sodipodi:open="true"
       transform="matrix(0.50719664,0,0,0.31881152,108.53202,715.19566)"
       clip-path="none" />
    <path
       sodipodi:type="arc"
       style="fill:#e3dbdb;fill-opacity:1;stroke:none"
       id="path5972-6"
       sodipodi:cx="247.26562"
       sodipodi:cy="372.28406"
       sodipodi:rx="93.059357"
       sodipodi:ry="28.286348"
       d="m 340.32498,372.28406 a 93.059357,28.286348 0 1 1 -186.11871,0 93.059357,28.286348 0 1 1 186.11871,0 z"
       transform="matrix(0.43773932,0.15372798,0.53220667,-0.73307447,-73.450581,1069.4441)"
       clip-path="none" />
    <path
       sodipodi:type="arc"
       style="fill:#ffffff;fill-opacity:1;stroke:#666666;stroke-width:0.48899999;stroke-linecap:round;stroke-linejoin:miter;stroke-miterlimit:4;stroke-opacity:1;stroke-dasharray:none;stroke-dashoffset:0"
       id="path5996-4"
       sodipodi:cx="422.26562"
       sodipodi:cy="291.42468"
       sodipodi:rx="19.140625"
       sodipodi:ry="20.3125"
       d="m 441.40625,291.42468 a 19.140625,20.3125 0 1 1 -3.8e-4,-0.12861"
       sodipodi:start="0"
       sodipodi:end="6.2768537"
       sodipodi:open="true"
       transform="translate(-195.62403,541.02382)"
       clip-path="none" />
    <path
       sodipodi:type="arc"
       style="fill:#000000;fill-opacity:1;stroke:#666666;stroke-width:0.48899999;stroke-linecap:round;stroke-linejoin:miter;stroke-miterlimit:4;stroke-opacity:1;stroke-dasharray:none;stroke-dashoffset:0"
       id="path5976-9"
       sodipodi:cx="128.125"
       sodipodi:cy="291.81531"
       sodipodi:rx="20.3125"
       sodipodi:ry="34.765625"
       d="m 148.4375,291.81531 a 20.3125,34.765625 0 1 1 -4.1e-4,-0.22012"
       sodipodi:start="0"
       sodipodi:end="6.2768537"
       sodipodi:open="true"
       transform="matrix(0.50719664,0,0,0.31881152,162.43827,739.41441)"
       clip-path="none" />
    <path
       style="fill:#000000;fill-opacity:1;stroke:none"
       d="m 118.82909,845.72975 c -6.17616,2.44248 -19.856891,-1.96268 -28.914341,14.79376 -5.60737,10.37372 -8.09423,24.71397 -19.92622,34.39913 -1.86741,1.52858 -7.85732,6.03193 -13.32788,8.33066 -4.64618,1.95232 -18.48245,-45.95015 -20.64406,1.85145 2.50315,12.54441 5.38709,25.07605 13.82318,21.64496 14.29858,-5.81544 25.81458,-12.19866 35.48517,-29.06858 3.12525,-5.45186 9.92908,-15.24788 15.393231,-28.86861 l 5.12451,-6.78909 9.08016,-1.44993"
       id="path6076"
       inkscape:connector-curvature="0"
       sodipodi:nodetypes="cssscssccc"
       clip-path="none" />
    <path
       style="fill:#000000;fill-opacity:1;stroke:#000000;stroke-width:1px;stroke-linecap:butt;stroke-linejoin:miter;stroke-opacity:1"
       d="m 111.40721,1035.9641 c 12.89063,9.7657 2.34376,14.8438 22.26564,9.7657 19.92187,-5.0782 17.21835,0.3148 14.84375,-8.2032 -2.15998,-7.748 -3.90625,-9.375 -11.32813,-11.7187"
       id="path6168"
       inkscape:connector-curvature="0"
       sodipodi:nodetypes="cssc"
       clip-path="none" />
    <text
       xml:space="preserve"
       style="font-size:161.49125671000002000px;font-style:normal;font-weight:normal;line-height:125%;letter-spacing:0px;word-spacing:0px;fill:#00acc8;fill-opacity:1;stroke:none;font-family:Sans"
       x="7.538506"
       y="709.66364"
       id="text6214"
       sodipodi:linespacing="125%"
       transform="scale(0.69237967,1.4442943)"
       clip-path="none"><tspan
         sodipodi:role="line"
         id="tspan6216"
         x="7.538506"
         y="709.66364"
         style="font-style:normal;font-variant:normal;font-weight:bold;font-stretch:normal;fill:#00acc8;fill-opacity:1;font-family:Magneto;-inkscape-font-specification:Magneto Bold">Kraken</tspan></text>
    <text
       xml:space="preserve"
       style="font-size:52.75090790000000100px;font-style:normal;font-weight:normal;line-height:125%;letter-spacing:0px;word-spacing:0px;fill:#00acc8;fill-opacity:1;stroke:none;font-family:Sans"
       x="586.19165"
       y="608.98492"
       id="text6232"
       sodipodi:linespacing="125%"
       transform="matrix(0.71391646,0.25556439,-0.44446766,1.2416157,0,0)"><tspan
         sodipodi:role="line"
         id="tspan6234"
         x="586.19165"
         y="608.98492"
         style="font-style:normal;font-variant:normal;font-weight:bold;font-stretch:normal;fill:#00acc8;font-family:Magneto;-inkscape-font-specification:Magneto Bold">K</tspan></text>
  </g>
</svg>
